<?xml version="1.0" encoding="iso-8859-1"?>
<!-- Uploaded to: SVG Repo, www.svgrepo.com, Generator: SVG Repo Mixer Tools -->
<svg version="1.1" id="Layer_1" xmlns="http://www.w3.org/2000/svg" xmlns:xlink="http://www.w3.org/1999/xlink" 
	 viewBox="0 0 512 512" xml:space="preserve">
<g>
	<polygon style="fill:#E5E5E5;" points="8.153,8.153 8.153,503.847 242.804,503.847 39.992,8.153 	"/>
	<polygon style="fill:#E5E5E5;" points="338.616,503.847 416.883,425.58 338.616,425.58 	"/>
</g>
<g>
	<rect x="277.741" y="108.161" style="fill:#6DDAE1;" width="43.482" height="200.017"/>
	<polygon style="fill:#6DDAE1;" points="147.295,108.161 103.813,108.161 103.813,164.139 147.295,270.413 	"/>
	<polygon style="fill:#6DDAE1;" points="103.813,164.139 103.813,308.178 147.295,308.178 147.295,270.413 	"/>
</g>
<g>
	<rect x="277.741" y="108.161" style="fill:#4FC4D3;" width="43.482" height="52.178"/>
	<rect x="103.813" y="108.161" style="fill:#4FC4D3;" width="43.482" height="52.178"/>
</g>
<polygon style="fill:#6DDAE1;" points="212.518,38.59 103.813,108.161 321.223,108.161 "/>
<g>
	<polygon style="fill:#FFD791;" points="69.028,108.161 69.028,134.251 91.584,134.251 80.91,108.161 	"/>
	<polygon style="fill:#FFD791;" points="356.009,108.161 80.91,108.161 91.584,134.251 356.009,134.251 	"/>
	<polygon style="fill:#FFD791;" points="69.028,299.482 69.028,325.571 169.863,325.571 159.189,299.482 	"/>
	<polygon style="fill:#FFD791;" points="356.009,299.482 159.189,299.482 169.863,325.571 356.009,325.571 	"/>
	<polygon style="fill:#FFD791;" points="466.952,185.448 251.727,400.673 233.279,456.017 288.622,437.569 503.847,222.345 	"/>
</g>
<rect x="443.807" y="197.467" transform="matrix(-0.7071 -0.7071 0.7071 -0.7071 647.0332 706.7832)" style="fill:#E5E5E5;" width="52.178" height="43.84"/>
<rect x="232.337" y="300.796" transform="matrix(-0.7071 0.7071 -0.7071 -0.7071 849.8278 301.7594)" style="fill:#FF8C78;" width="260.161" height="52.178"/>
<polygon style="fill:#CCCCCC;" points="435.97,216.472 451.777,232.278 483.087,201.467 467.068,185.448 "/>
<polygon style="fill:#DF7A6E;" points="252.172,400.606 266.724,415.158 451.777,232.278 435.97,216.472 "/>
<path d="M227.737,208.713h-7.066v-22.828h17.936c4.503,0,8.153-3.65,8.153-8.153c0-4.503-3.65-8.153-8.153-8.153h-17.936v-9.24
	c0-4.503-3.65-8.153-8.153-8.153c-4.503,0-8.153,3.65-8.153,8.153v9.24H197.3c-10.489,0-19.023,8.534-19.023,19.023v17.393
	c0,10.489,8.534,19.023,19.023,19.023h7.066v22.828h-17.936c-4.503,0-8.153,3.65-8.153,8.153c0,4.503,3.65,8.153,8.153,8.153h17.936
	v9.24c0,4.503,3.65,8.153,8.153,8.153c4.503,0,8.153-3.65,8.153-8.153v-9.24h7.066c10.489,0,19.023-8.534,19.023-19.023v-17.393
	C246.76,217.248,238.226,208.713,227.737,208.713z M197.3,208.713c-1.498,0-2.718-1.22-2.718-2.718v-17.393
	c0-1.498,1.22-2.718,2.718-2.718h7.066v22.828H197.3z M230.454,245.13c0,1.498-1.22,2.718-2.718,2.718h-7.066v-22.828h7.066
	c1.498,0,2.718,1.22,2.718,2.718V245.13z"/>
<path d="M509.612,216.579l-36.896-36.896c-3.183-3.185-8.345-3.184-11.529,0l-36.151,36.151V8.153c0-4.503-3.65-8.153-8.153-8.153
	H8.153C3.65,0,0,3.65,0,8.153v395.686c0,4.503,3.65,8.153,8.153,8.153s8.153-3.65,8.153-8.153V16.306h392.425V232.14l-59.189,59.189
	h-20.166V142.403h26.633c4.503,0,8.153-3.65,8.153-8.153v-26.089c0-4.503-3.65-8.153-8.153-8.153h-32.401L216.913,31.723
	c-2.68-1.714-6.11-1.714-8.79,0l-106.695,68.285H69.028c-4.503,0-8.153,3.65-8.153,8.153v26.089c0,4.503,3.65,8.153,8.153,8.153
	H95.66v148.926H69.028c-4.503,0-8.153,3.65-8.153,8.153v26.089c0,4.503,3.65,8.153,8.153,8.153h238.119l-60.928,60.928
	c-0.018,0.018-0.035,0.039-0.053,0.059c-0.965,0.899-1.726,2.045-2.173,3.385l-18.447,55.344
	c-2.083,6.247,4.06,12.396,10.313,10.313l55.344-18.448c1.346-0.449,2.496-1.215,3.396-2.187c0.033-0.033,0.07-0.061,0.101-0.094
	l49.902-50.867c3.152-3.214,3.104-8.377-0.111-11.529c-3.214-3.152-8.376-3.102-11.529,0.111l-44.137,44.992l-25.311-25.311
	l172.436-172.436l25.366,25.366l-92.548,92.548c-3.184,3.184-3.184,8.346,0,11.529c3.184,3.184,8.346,3.184,11.529,0l28.434-28.435
	v88.436h-70.115c-4.503,0-8.153,3.65-8.153,8.153v70.115H16.306v-48.374c0-4.503-3.65-8.153-8.153-8.153S0,442.818,0,447.321v56.527
	C0,508.35,3.65,512,8.153,512h330.463c2.136,0,4.255-0.877,5.765-2.388l78.268-78.268c1.511-1.51,2.388-3.629,2.388-5.765V312.685
	l53.573-53.573l31.003-31.003C512.796,224.926,512.796,219.763,509.612,216.579z M273.914,433.878l-27.744,9.249l9.248-27.745
	L273.914,433.878z M346.769,484.165v-50.433h50.433L346.769,484.165z M313.07,291.329h-27.176V142.403h27.176V291.329z
	 M155.448,291.329V142.403h114.14v148.926H155.448z M212.518,48.269l80.842,51.739H131.677L212.518,48.269z M77.181,116.314h270.675
	v9.783H77.181V116.314z M111.966,142.403h27.176v148.926h-27.176V142.403z M77.181,317.418v-9.783h256.055l-9.783,9.783H77.181z
	 M472.845,241.817l-25.366-25.366l19.473-19.472l25.365,25.365L472.845,241.817z"/>
<path d="M103.813,420.688H208.17c4.503,0,8.153-3.65,8.153-8.153c0-4.503-3.65-8.153-8.153-8.153H103.813
	c-4.503,0-8.153,3.65-8.153,8.153C95.66,417.038,99.311,420.688,103.813,420.688z"/>
<path d="M103.813,464.17h113.053c4.503,0,8.153-3.65,8.153-8.153c0-4.503-3.65-8.153-8.153-8.153H103.813
	c-4.503,0-8.153,3.65-8.153,8.153C95.66,460.52,99.311,464.17,103.813,464.17z"/>
<path d="M103.813,377.206H208.17c4.503,0,8.153-3.65,8.153-8.153s-3.65-8.153-8.153-8.153H103.813c-4.503,0-8.153,3.65-8.153,8.153
	S99.311,377.206,103.813,377.206z"/>
</svg>