<?xml version="1.0" encoding="UTF-8" standalone="no"?>
<!-- Created with Inkscape (http://www.inkscape.org/) -->

<svg
   xmlns:dc="http://purl.org/dc/elements/1.1/"
   xmlns:cc="http://creativecommons.org/ns#"
   xmlns:rdf="http://www.w3.org/1999/02/22-rdf-syntax-ns#"
   xmlns:svg="http://www.w3.org/2000/svg"
   xmlns="http://www.w3.org/2000/svg"
   xmlns:sodipodi="http://sodipodi.sourceforge.net/DTD/sodipodi-0.dtd"
   xmlns:inkscape="http://www.inkscape.org/namespaces/inkscape"
   width="100mm"
   height="100mm"
   viewBox="0 0 100 100"
   version="1.1"
   id="svg8"
   sodipodi:docname="icon.svg"
   inkscape:version="0.92.2 5c3e80d, 2017-08-06"
   inkscape:export-filename="/Users/marcelsavegnago/Documents/id42/LOGOS/icon.png"
   inkscape:export-xdpi="91.867622"
   inkscape:export-ydpi="91.867622">
  <defs
     id="defs2">
    <clipPath
       clipPathUnits="userSpaceOnUse"
       id="clipPath4562">
      <rect
         ry="4.1577382"
         y="13.040181"
         x="-124.92113"
         height="98.866074"
         width="99.811012"
         id="rect4564"
         style="fill:#aa0000;stroke-width:0.26458332"
         clip-path="none" />
    </clipPath>
    <clipPath
       clipPathUnits="userSpaceOnUse"
       id="clipPath4578">
      <rect
         ry="4.1577382"
         y="1.5119057"
         x="-120.00744"
         height="97.930626"
         width="99.811012"
         id="rect4580"
         style="fill:#aa0000;stroke-width:0.26458332" />
    </clipPath>
  </defs>
  <sodipodi:namedview
     id="base"
     pagecolor="#ffffff"
     bordercolor="#666666"
     borderopacity="1.0"
     inkscape:pageopacity="0.0"
     inkscape:pageshadow="2"
     inkscape:zoom="0.7"
     inkscape:cx="404.85241"
     inkscape:cy="231.79398"
     inkscape:document-units="mm"
     inkscape:current-layer="layer2"
     showgrid="false"
     inkscape:snap-page="true"
     showguides="true"
     inkscape:guide-bbox="true"
     inkscape:window-width="1280"
     inkscape:window-height="702"
     inkscape:window-x="12"
     inkscape:window-y="0"
     inkscape:window-maximized="0"
     inkscape:snap-global="false"
     inkscape:measure-start="187.143,62.8571"
     inkscape:measure-end="188.571,-1.42857">
    <sodipodi:guide
       position="27.285156,77.130766"
       orientation="-0.70710678,0.70710678"
       id="guide4619"
       inkscape:locked="false" />
    <sodipodi:guide
       position="65.956845,10.583333"
       orientation="-0.70710678,0.70710678"
       id="guide4621"
       inkscape:locked="false" />
    <sodipodi:guide
       position="67.704985,78.09933"
       orientation="-0.70710678,0.70710678"
       id="guide4623"
       inkscape:locked="false" />
    <sodipodi:guide
       position="62.407434,24.722431"
       orientation="-0.70710678,0.70710678"
       id="guide4625"
       inkscape:locked="false" />
  </sodipodi:namedview>
  <metadata
     id="metadata5">
    <rdf:RDF>
      <cc:Work
         rdf:about="">
        <dc:format>image/svg+xml</dc:format>
        <dc:type
           rdf:resource="http://purl.org/dc/dcmitype/StillImage" />
        <dc:title></dc:title>
      </cc:Work>
    </rdf:RDF>
  </metadata>
  <g
     inkscape:label="Layer 1"
     inkscape:groupmode="layer"
     id="layer1"
     transform="translate(0,-197)"
     style="display:inline" />
  <g
     inkscape:groupmode="layer"
     id="layer2"
     inkscape:label="Layer 2"
     style="display:inline">
    <rect
       y="0"
       x="0"
       height="25.164532"
       width="100"
       id="rect4535"
       style="fill:#2483c5;stroke-width:0.13272627;fill-opacity:0.80149812"
       ry="4.9136906"
       inkscape:export-xdpi="91.327972"
       inkscape:export-ydpi="91.327972" />
    <rect
       ry="4.9136906"
       style="fill:#24245c;stroke-width:0.13272627;fill-opacity:1"
       id="rect4566"
       width="100"
       height="25.164532"
       x="0.18899068"
       y="74.958138"
       inkscape:export-xdpi="91.327972"
       inkscape:export-ydpi="91.327972" />
    <rect
       style="fill:#2483c5;stroke-width:0.26458332;fill-opacity:1"
       id="rect914"
       width="99.811012"
       height="97.930626"
       x="0.18898809"
       y="1.1339295"
       ry="4.1577382"
       inkscape:export-xdpi="91.327972"
       inkscape:export-ydpi="91.327972" />
    <path
       inkscape:connector-curvature="0"
       d="m -94.801154,22.164916 -27.663136,26.566584 2.26786,51.64648 h 37.697532 17.674503 l 18.256764,-17.499341 -0.357726,-12.039111 0.103556,-35.709692 -12.367577,-11.943386 -13.921757,0.298048 -13.752518,-1.096522"
       style="display:inline;opacity:0.47600002;fill:#550000;stroke:none;stroke-width:0.26458332px;stroke-linecap:butt;stroke-linejoin:miter;stroke-opacity:1"
       id="path4576"
       clip-path="url(#clipPath4578)"
       transform="matrix(1,0,0,1.0477127,120.21264,-5.0610747)"
       inkscape:export-xdpi="91.327972"
       inkscape:export-ydpi="91.327972"
       sodipodi:nodetypes="ccccccccccc" />
    <g
       id="g1099"
       transform="matrix(0.15694819,0,0,0.15694819,22.442357,17.453291)">
      <g
         id="g1034">
        <g
           id="g1032">
          <g
             id="g1030">
            <path
               id="path1014"
               d="m 249.5054,92.823 h 53.791 l 0.005,62.757 27.271,-42.343 V 77.743 c 0,-2.168 -0.863,-4.247 -2.396,-5.787 L 258.6124,2.395 C 257.0794,0.863 254.9994,0 252.8274,0 H 37.741399 c -13.534,0 -24.547,11.008 -24.547,24.543 v 370.914 c 0,13.534 11.012,24.543 24.547,24.543 H 306.0244 c 13.533,0 24.545,-11.009 24.545,-24.543 V 290.15 l -27.264,41.721 0.004,60.854 H 40.468399 V 27.274 H 239.3744 v 55.417 c 0,5.599 4.535,10.132 10.131,10.132 z"
               inkscape:connector-curvature="0"
               style="fill:#ffffff" />
            <path
               id="path1016"
               d="m 348.90644,221.22282 -9.86485,-9.16236 c -1.61064,-1.4946 -4.12524,-1.40313 -5.62182,0.20718 l -75.50518,81.27788 -10.21401,-9.48701 75.50535,-81.27888 c 1.49674,-1.61128 1.40428,-4.12606 -0.20619,-5.62165 l -9.86467,-9.16334 c -1.61047,-1.49559 -4.12721,-1.40346 -5.62182,0.20718 L 194.4577,309.90372 c -0.4803,0.5173 -0.81352,1.15314 -0.96811,1.84192 l -10.49398,47.16303 c -0.30606,1.3771 0.13989,2.81815 1.17596,3.77596 1.0354,0.96175 2.50407,1.30178 3.85321,0.89486 l 46.26272,-13.93733 c 0.67777,-0.20139 1.28716,-0.58393 1.7696,-1.10186 L 349.11051,226.83903 c 1.49852,-1.60388 1.40425,-4.11998 -0.20407,-5.61621 z"
               inkscape:connector-curvature="0"
               style="fill:#ffffff" />
            <path
               id="path1018"
               d="m 395.23055,171.35435 -35.76922,-33.22883 c -1.60867,-1.49426 -4.1264,-1.4023 -5.62182,0.20718 l -34.29286,36.91594 c -1.49459,1.61064 -1.40363,4.12821 0.20685,5.62379 l 35.76956,33.22685 c 1.6085,1.49526 4.12721,1.40347 5.62182,-0.20717 l 34.2917,-36.91513 c 1.49756,-1.61013 1.40444,-4.12705 -0.20603,-5.62263 z"
               inkscape:connector-curvature="0"
               style="fill:#ffffff" />
            <path
               id="path1020"
               d="m 83.563,109.13658 h 78 c 5.523,0 10,-4.478 10,-10.000003 0,-5.522 -4.477,-10 -10,-10 h -78 c -5.523,0 -10,4.478 -10,10 0,5.522003 4.479,10.000003 10,10.000003 z"
               inkscape:connector-curvature="0"
               style="fill:#ffffff" />
            <path
               id="path1022"
               d="m 231.563,149.13658 c 0,-5.522 -4.479,-10 -10,-10 h -138 c -5.523,0 -10,4.478 -10,10 0,5.522 4.477,10 10,10 h 138 c 5.523,0 10,-4.478 10,-10 z"
               inkscape:connector-curvature="0"
               style="fill:#ffffff" />
            <path
               id="path1024"
               d="m 83.563,209.13658 h 78 c 5.523,0 10,-4.478 10,-10 0,-5.522 -4.477,-10 -10,-10 h -78 c -5.523,0 -10,4.478 -10,10 0,5.522 4.479,10 10,10 z"
               inkscape:connector-curvature="0"
               style="fill:#ffffff" />
            <path
               id="path1026"
               d="m 83.563,259.13658 h 78 c 5.523,0 10,-4.478 10,-10 0,-5.521 -4.477,-10 -10,-10 h -78 c -5.523,0 -10,4.479 -10,10 0,5.522 4.479,10 10,10 z"
               inkscape:connector-curvature="0"
               style="fill:#ffffff" />
          </g>
        </g>
      </g>
      <g
         id="g1036" />
      <g
         id="g1038" />
      <g
         id="g1040" />
      <g
         id="g1042" />
      <g
         id="g1044" />
      <g
         id="g1046" />
      <g
         id="g1048" />
      <g
         id="g1050" />
      <g
         id="g1052" />
      <g
         id="g1054" />
      <g
         id="g1056" />
      <g
         id="g1058" />
      <g
         id="g1060" />
      <g
         id="g1062" />
      <g
         id="g1064" />
    </g>
  </g>
</svg>
